<svg xmlns="http://www.w3.org/2000/svg" version="1.1" xmlns:xlink="http://www.w3.org/1999/xlink" xmlns:svgjs="http://svgjs.com/svgjs" width="1440" height="560" preserveAspectRatio="none" viewBox="0 0 1440 560"><g mask="url(&quot;#SvgjsMask1014&quot;)" fill="none"><path d="M 0,91 C 57.6,123.2 172.8,264.8 288,252 C 403.2,239.2 460.8,44.2 576,27 C 691.2,9.8 748.8,150.4 864,166 C 979.2,181.6 1036.8,99.6 1152,105 C 1267.2,110.4 1382.4,175.4 1440,193L1440 560L0 560z" fill="rgba(246, 250, 255, 1)"></path><path d="M 0,401 C 96,409.6 288,453.4 480,444 C 672,434.6 768,351 960,354 C 1152,357 1344,438 1440,459L1440 560L0 560z" fill="rgba(243, 242, 242, 1)"></path></g><defs><mask id="SvgjsMask1014"><rect width="1440" height="560" fill="#ffffff"></rect></mask></defs></svg>